<?xml version="1.0" encoding="UTF-8" standalone="no"?>
<!DOCTYPE svg PUBLIC "-//W3C//DTD SVG 1.1//EN"
 "http://www.w3.org/Graphics/SVG/1.1/DTD/svg11.dtd">
<!-- Generated by graphviz version 2.38.0 (20140413.2041)
 -->
<!-- Title: %3 Pages: 1 -->
<svg width="1235pt" height="1072pt"
 viewBox="0.00 0.00 1235.00 1072.00" xmlns="http://www.w3.org/2000/svg" xmlns:xlink="http://www.w3.org/1999/xlink">
<g id="graph0" class="graph" transform="scale(1 1) rotate(0) translate(4 1068)">
<title>%3</title>
<polygon fill="white" stroke="none" points="-4,4 -4,-1068 1231,-1068 1231,4 -4,4"/>
<!-- 10 -->
<g id="node1" class="node"><title>10</title>
<g id="a_node1"><a xlink:title="&lt;frozen importlib._bootstrap&gt;">
<polygon fill="#0d0f73" stroke="#0d0f73" points="737.5,-1064 562.5,-1064 562.5,-1012 737.5,-1012 737.5,-1064"/>
<text text-anchor="middle" x="650" y="-1052" font-family="Arial" font-size="10.00" fill="#ffffff">&lt;frozen importlib:978:_find_and_load</text>
<text text-anchor="middle" x="650" y="-1041" font-family="Arial" font-size="10.00" fill="#ffffff">0.57%</text>
<text text-anchor="middle" x="650" y="-1030" font-family="Arial" font-size="10.00" fill="#ffffff">(0.01%)</text>
<text text-anchor="middle" x="650" y="-1019" font-family="Arial" font-size="10.00" fill="#ffffff">208×</text>
</a>
</g>
</g>
<!-- 91 -->
<g id="node2" class="node"><title>91</title>
<g id="a_node2"><a xlink:title="&lt;frozen importlib._bootstrap&gt;">
<polygon fill="#0d0f73" stroke="#0d0f73" points="759.5,-972 540.5,-972 540.5,-920 759.5,-920 759.5,-972"/>
<text text-anchor="middle" x="650" y="-960" font-family="Arial" font-size="10.00" fill="#ffffff">&lt;frozen importlib:948:_find_and_load_unlocked</text>
<text text-anchor="middle" x="650" y="-949" font-family="Arial" font-size="10.00" fill="#ffffff">0.57%</text>
<text text-anchor="middle" x="650" y="-938" font-family="Arial" font-size="10.00" fill="#ffffff">(0.00%)</text>
<text text-anchor="middle" x="650" y="-927" font-family="Arial" font-size="10.00" fill="#ffffff">208×</text>
</a>
</g>
</g>
<!-- 10&#45;&gt;91 -->
<g id="edge1" class="edge"><title>10&#45;&gt;91</title>
<path fill="none" stroke="#0d0f73" stroke-width="0.5" d="M650,-1011.93C650,-1000.71 650,-987.422 650,-975.798"/>
<polygon fill="#0d0f73" stroke="#0d0f73" stroke-width="0.5" points="651.225,-975.748 650,-972.248 648.775,-975.748 651.225,-975.748"/>
<text text-anchor="middle" x="664" y="-995" font-family="Arial" font-size="10.00" fill="#0d0f73">0.57%</text>
<text text-anchor="middle" x="664" y="-984" font-family="Arial" font-size="10.00" fill="#0d0f73">1×</text>
</g>
<!-- 107 -->
<g id="node5" class="node"><title>107</title>
<g id="a_node5"><a xlink:title="&lt;frozen importlib._bootstrap&gt;">
<polygon fill="#0d0f73" stroke="#0d0f73" points="739,-880 561,-880 561,-828 739,-828 739,-880"/>
<text text-anchor="middle" x="650" y="-868" font-family="Arial" font-size="10.00" fill="#ffffff">&lt;frozen importlib:663:_load_unlocked</text>
<text text-anchor="middle" x="650" y="-857" font-family="Arial" font-size="10.00" fill="#ffffff">0.57%</text>
<text text-anchor="middle" x="650" y="-846" font-family="Arial" font-size="10.00" fill="#ffffff">(0.00%)</text>
<text text-anchor="middle" x="650" y="-835" font-family="Arial" font-size="10.00" fill="#ffffff">201×</text>
</a>
</g>
</g>
<!-- 91&#45;&gt;107 -->
<g id="edge3" class="edge"><title>91&#45;&gt;107</title>
<path fill="none" stroke="#0d0f73" stroke-width="0.5" d="M650,-919.93C650,-908.712 650,-895.422 650,-883.798"/>
<polygon fill="#0d0f73" stroke="#0d0f73" stroke-width="0.5" points="651.225,-883.748 650,-880.248 648.775,-883.748 651.225,-883.748"/>
<text text-anchor="middle" x="664" y="-903" font-family="Arial" font-size="10.00" fill="#0d0f73">0.57%</text>
<text text-anchor="middle" x="664" y="-892" font-family="Arial" font-size="10.00" fill="#0d0f73">1×</text>
</g>
<!-- 88 -->
<g id="node3" class="node"><title>88</title>
<g id="a_node3"><a xlink:title="&lt;frozen importlib._bootstrap&gt;">
<polygon fill="#0d0f73" stroke="#0d0f73" points="764.5,-696 535.5,-696 535.5,-644 764.5,-644 764.5,-696"/>
<text text-anchor="middle" x="650" y="-684" font-family="Arial" font-size="10.00" fill="#ffffff">&lt;frozen importlib:211:_call_with_frames_removed</text>
<text text-anchor="middle" x="650" y="-673" font-family="Arial" font-size="10.00" fill="#ffffff">0.57%</text>
<text text-anchor="middle" x="650" y="-662" font-family="Arial" font-size="10.00" fill="#ffffff">(0.00%)</text>
<text text-anchor="middle" x="650" y="-651" font-family="Arial" font-size="10.00" fill="#ffffff">276×</text>
</a>
</g>
</g>
<!-- 421 -->
<g id="node4" class="node"><title>421</title>
<g id="a_node4"><a xlink:title="~">
<polygon fill="#ff0000" stroke="#ff0000" points="733.5,-604 566.5,-604 566.5,-552 733.5,-552 733.5,-604"/>
<text text-anchor="middle" x="650" y="-592" font-family="Arial" font-size="10.00" fill="#ffffff">~:0:&lt;built&#45;in method builtins.exec&gt;</text>
<text text-anchor="middle" x="650" y="-581" font-family="Arial" font-size="10.00" fill="#ffffff">100.00%</text>
<text text-anchor="middle" x="650" y="-570" font-family="Arial" font-size="10.00" fill="#ffffff">(0.01%)</text>
<text text-anchor="middle" x="650" y="-559" font-family="Arial" font-size="10.00" fill="#ffffff">192×</text>
</a>
</g>
</g>
<!-- 88&#45;&gt;421 -->
<g id="edge2" class="edge"><title>88&#45;&gt;421</title>
<path fill="none" stroke="#0d0f73" stroke-width="0.5" d="M650,-643.93C650,-632.712 650,-619.422 650,-607.798"/>
<polygon fill="#0d0f73" stroke="#0d0f73" stroke-width="0.5" points="651.225,-607.748 650,-604.248 648.775,-607.748 651.225,-607.748"/>
<text text-anchor="middle" x="664" y="-627" font-family="Arial" font-size="10.00" fill="#0d0f73">0.56%</text>
<text text-anchor="middle" x="664" y="-616" font-family="Arial" font-size="10.00" fill="#0d0f73">1×</text>
</g>
<!-- 135 -->
<g id="node7" class="node"><title>135</title>
<g id="a_node7"><a xlink:title="main.py">
<polygon fill="#ff0000" stroke="#ff0000" points="609,-512 517,-512 517,-460 609,-460 609,-512"/>
<text text-anchor="middle" x="563" y="-500" font-family="Arial" font-size="10.00" fill="#ffffff">main:1:&lt;module&gt;</text>
<text text-anchor="middle" x="563" y="-489" font-family="Arial" font-size="10.00" fill="#ffffff">100.00%</text>
<text text-anchor="middle" x="563" y="-478" font-family="Arial" font-size="10.00" fill="#ffffff">(0.01%)</text>
<text text-anchor="middle" x="563" y="-467" font-family="Arial" font-size="10.00" fill="#ffffff">1×</text>
</a>
</g>
</g>
<!-- 421&#45;&gt;135 -->
<g id="edge13" class="edge"><title>421&#45;&gt;135</title>
<path fill="none" stroke="#ff0000" stroke-width="4" d="M625.766,-551.93C616.043,-541.872 604.711,-530.15 594.373,-519.455"/>
<polygon fill="#ff0000" stroke="#ff0000" stroke-width="4" points="596.873,-517.005 587.406,-512.248 591.84,-521.87 596.873,-517.005"/>
<text text-anchor="middle" x="636.5" y="-535" font-family="Arial" font-size="10.00" fill="#ff0000">100.00%</text>
<text text-anchor="middle" x="636.5" y="-524" font-family="Arial" font-size="10.00" fill="#ff0000">1×</text>
</g>
<!-- 136 -->
<g id="node12" class="node"><title>136</title>
<g id="a_node12"><a xlink:title="C:\Users\quentin\Documents\Programmation\Python\python_rl_re\engine.py">
<polygon fill="#0d0f73" stroke="#0d0f73" points="759,-512 659,-512 659,-460 759,-460 759,-512"/>
<text text-anchor="middle" x="709" y="-500" font-family="Arial" font-size="10.00" fill="#ffffff">engine:1:&lt;module&gt;</text>
<text text-anchor="middle" x="709" y="-489" font-family="Arial" font-size="10.00" fill="#ffffff">0.56%</text>
<text text-anchor="middle" x="709" y="-478" font-family="Arial" font-size="10.00" fill="#ffffff">(0.00%)</text>
<text text-anchor="middle" x="709" y="-467" font-family="Arial" font-size="10.00" fill="#ffffff">1×</text>
</a>
</g>
</g>
<!-- 421&#45;&gt;136 -->
<g id="edge14" class="edge"><title>421&#45;&gt;136</title>
<path fill="none" stroke="#0d0f73" stroke-width="0.5" d="M666.435,-551.93C673.916,-540.518 682.802,-526.963 690.515,-515.198"/>
<polygon fill="#0d0f73" stroke="#0d0f73" stroke-width="0.5" points="691.554,-515.846 692.449,-512.248 689.505,-514.503 691.554,-515.846"/>
<text text-anchor="middle" x="701" y="-535" font-family="Arial" font-size="10.00" fill="#0d0f73">0.56%</text>
<text text-anchor="middle" x="701" y="-524" font-family="Arial" font-size="10.00" fill="#0d0f73">1×</text>
</g>
<!-- 93 -->
<g id="node6" class="node"><title>93</title>
<g id="a_node6"><a xlink:title="&lt;frozen importlib._bootstrap_external&gt;">
<polygon fill="#0d0f73" stroke="#0d0f73" points="734,-788 566,-788 566,-736 734,-736 734,-788"/>
<text text-anchor="middle" x="650" y="-776" font-family="Arial" font-size="10.00" fill="#ffffff">&lt;frozen importlib:722:exec_module</text>
<text text-anchor="middle" x="650" y="-765" font-family="Arial" font-size="10.00" fill="#ffffff">0.57%</text>
<text text-anchor="middle" x="650" y="-754" font-family="Arial" font-size="10.00" fill="#ffffff">(0.00%)</text>
<text text-anchor="middle" x="650" y="-743" font-family="Arial" font-size="10.00" fill="#ffffff">171×</text>
</a>
</g>
</g>
<!-- 107&#45;&gt;93 -->
<g id="edge5" class="edge"><title>107&#45;&gt;93</title>
<path fill="none" stroke="#0d0f73" stroke-width="0.5" d="M650,-827.93C650,-816.712 650,-803.422 650,-791.798"/>
<polygon fill="#0d0f73" stroke="#0d0f73" stroke-width="0.5" points="651.225,-791.748 650,-788.248 648.775,-791.748 651.225,-791.748"/>
<text text-anchor="middle" x="664" y="-811" font-family="Arial" font-size="10.00" fill="#0d0f73">0.57%</text>
<text text-anchor="middle" x="664" y="-800" font-family="Arial" font-size="10.00" fill="#0d0f73">1×</text>
</g>
<!-- 93&#45;&gt;88 -->
<g id="edge4" class="edge"><title>93&#45;&gt;88</title>
<path fill="none" stroke="#0d0f73" stroke-width="0.5" d="M650,-735.93C650,-724.712 650,-711.422 650,-699.798"/>
<polygon fill="#0d0f73" stroke="#0d0f73" stroke-width="0.5" points="651.225,-699.748 650,-696.248 648.775,-699.748 651.225,-699.748"/>
<text text-anchor="middle" x="664" y="-719" font-family="Arial" font-size="10.00" fill="#0d0f73">0.56%</text>
<text text-anchor="middle" x="664" y="-708" font-family="Arial" font-size="10.00" fill="#0d0f73">1×</text>
</g>
<!-- 135&#45;&gt;10 -->
<g id="edge6" class="edge"><title>135&#45;&gt;10</title>
<path fill="none" stroke="#0d0f73" stroke-width="0.5" d="M543.966,-512.329C532.854,-529.615 521,-553.55 521,-577 521,-947 521,-947 521,-947 521,-975.865 542.993,-996.237 568.817,-1010.21"/>
<polygon fill="#0d0f73" stroke="#0d0f73" stroke-width="0.5" points="568.317,-1011.33 571.984,-1011.88 569.461,-1009.16 568.317,-1011.33"/>
<text text-anchor="middle" x="535" y="-765" font-family="Arial" font-size="10.00" fill="#0d0f73">0.57%</text>
<text text-anchor="middle" x="535" y="-754" font-family="Arial" font-size="10.00" fill="#0d0f73">1×</text>
</g>
<!-- 422 -->
<g id="node8" class="node"><title>422</title>
<g id="a_node8"><a xlink:title="C:\Users\quentin\Documents\Programmation\Python\python_rl_re\engine.py">
<polygon fill="#0d1174" stroke="#0d1174" points="357.5,-420 262.5,-420 262.5,-368 357.5,-368 357.5,-420"/>
<text text-anchor="middle" x="310" y="-408" font-family="Arial" font-size="10.00" fill="#ffffff">engine:40:__init__</text>
<text text-anchor="middle" x="310" y="-397" font-family="Arial" font-size="10.00" fill="#ffffff">1.14%</text>
<text text-anchor="middle" x="310" y="-386" font-family="Arial" font-size="10.00" fill="#ffffff">(0.00%)</text>
<text text-anchor="middle" x="310" y="-375" font-family="Arial" font-size="10.00" fill="#ffffff">1×</text>
</a>
</g>
</g>
<!-- 135&#45;&gt;422 -->
<g id="edge7" class="edge"><title>135&#45;&gt;422</title>
<path fill="none" stroke="#0d1174" stroke-width="0.5" d="M516.89,-468.597C472.856,-452.933 406.632,-429.375 361.031,-413.153"/>
<polygon fill="#0d1174" stroke="#0d1174" stroke-width="0.5" points="361.218,-411.92 357.51,-411.901 360.397,-414.228 361.218,-411.92"/>
<text text-anchor="middle" x="481" y="-443" font-family="Arial" font-size="10.00" fill="#0d1174">1.14%</text>
<text text-anchor="middle" x="481" y="-432" font-family="Arial" font-size="10.00" fill="#0d1174">1×</text>
</g>
<!-- 426 -->
<g id="node9" class="node"><title>426</title>
<g id="a_node9"><a xlink:title="C:\Users\quentin\Documents\Programmation\Python\python_rl_re\engine.py">
<polygon fill="#0aab3d" stroke="#0aab3d" points="670,-420 574,-420 574,-368 670,-368 670,-420"/>
<text text-anchor="middle" x="622" y="-408" font-family="Arial" font-size="10.00" fill="#ffffff">engine:255:update</text>
<text text-anchor="middle" x="622" y="-397" font-family="Arial" font-size="10.00" fill="#ffffff">42.05%</text>
<text text-anchor="middle" x="622" y="-386" font-family="Arial" font-size="10.00" fill="#ffffff">(2.52%)</text>
<text text-anchor="middle" x="622" y="-375" font-family="Arial" font-size="10.00" fill="#ffffff">162×</text>
</a>
</g>
</g>
<!-- 135&#45;&gt;426 -->
<g id="edge8" class="edge"><title>135&#45;&gt;426</title>
<path fill="none" stroke="#0aab3d" stroke-width="1.68" d="M579.435,-459.93C586.345,-449.389 594.454,-437.019 601.731,-425.92"/>
<polygon fill="#0aab3d" stroke="#0aab3d" stroke-width="1.68" points="603.788,-426.931 605.449,-420.248 599.982,-424.436 603.788,-426.931"/>
<text text-anchor="middle" x="617" y="-443" font-family="Arial" font-size="10.00" fill="#0aab3d">42.05%</text>
<text text-anchor="middle" x="617" y="-432" font-family="Arial" font-size="10.00" fill="#0aab3d">162×</text>
</g>
<!-- 436 -->
<g id="node10" class="node"><title>436</title>
<g id="a_node10"><a xlink:title="C:\Users\quentin\Documents\Programmation\Python\python_rl_re\engine.py">
<polygon fill="#1fba09" stroke="#1fba09" points="842.5,-420 735.5,-420 735.5,-368 842.5,-368 842.5,-420"/>
<text text-anchor="middle" x="789" y="-408" font-family="Arial" font-size="10.00" fill="#ffffff">engine:210:rendering</text>
<text text-anchor="middle" x="789" y="-397" font-family="Arial" font-size="10.00" fill="#ffffff">53.12%</text>
<text text-anchor="middle" x="789" y="-386" font-family="Arial" font-size="10.00" fill="#ffffff">(0.29%)</text>
<text text-anchor="middle" x="789" y="-375" font-family="Arial" font-size="10.00" fill="#ffffff">161×</text>
</a>
</g>
</g>
<!-- 135&#45;&gt;436 -->
<g id="edge9" class="edge"><title>135&#45;&gt;436</title>
<path fill="none" stroke="#1fba09" stroke-width="2.12" d="M609.007,-466.679C643.391,-452.986 690.727,-434.135 728.226,-419.202"/>
<polygon fill="#1fba09" stroke="#1fba09" stroke-width="2.12" points="729.271,-421.536 735.108,-416.461 727.381,-416.789 729.271,-421.536"/>
<text text-anchor="middle" x="720" y="-443" font-family="Arial" font-size="10.00" fill="#1fba09">53.12%</text>
<text text-anchor="middle" x="720" y="-432" font-family="Arial" font-size="10.00" fill="#1fba09">161×</text>
</g>
<!-- 563 -->
<g id="node11" class="node"><title>563</title>
<g id="a_node11"><a xlink:title="C:\Python\Python37&#45;32\lib\site&#45;packages\tdl\__init__.py">
<polygon fill="#0d3a7f" stroke="#0d3a7f" points="586,-328 488,-328 488,-276 586,-276 586,-328"/>
<text text-anchor="middle" x="537" y="-316" font-family="Arial" font-size="10.00" fill="#ffffff">__init__:1073:flush</text>
<text text-anchor="middle" x="537" y="-305" font-family="Arial" font-size="10.00" fill="#ffffff">9.81%</text>
<text text-anchor="middle" x="537" y="-294" font-family="Arial" font-size="10.00" fill="#ffffff">(0.01%)</text>
<text text-anchor="middle" x="537" y="-283" font-family="Arial" font-size="10.00" fill="#ffffff">323×</text>
</a>
</g>
</g>
<!-- 135&#45;&gt;563 -->
<g id="edge10" class="edge"><title>135&#45;&gt;563</title>
<path fill="none" stroke="#0d1a77" stroke-width="0.5" d="M552.566,-459.832C548.145,-447.964 543.456,-433.479 541,-420 535.604,-390.392 535.112,-355.89 535.656,-332.062"/>
<polygon fill="#0d1a77" stroke="#0d1a77" stroke-width="0.5" points="536.887,-331.862 535.752,-328.332 534.438,-331.8 536.887,-331.862"/>
<text text-anchor="middle" x="555" y="-397" font-family="Arial" font-size="10.00" fill="#0d1a77">3.05%</text>
<text text-anchor="middle" x="555" y="-386" font-family="Arial" font-size="10.00" fill="#0d1a77">162×</text>
</g>
<!-- 290 -->
<g id="node13" class="node"><title>290</title>
<g id="a_node13"><a xlink:title="C:\Python\Python37&#45;32\lib\site&#45;packages\tdl\__init__.py">
<polygon fill="#0d1174" stroke="#0d1174" points="231,-328 141,-328 141,-276 231,-276 231,-328"/>
<text text-anchor="middle" x="186" y="-316" font-family="Arial" font-size="10.00" fill="#ffffff">__init__:1005:init</text>
<text text-anchor="middle" x="186" y="-305" font-family="Arial" font-size="10.00" fill="#ffffff">1.11%</text>
<text text-anchor="middle" x="186" y="-294" font-family="Arial" font-size="10.00" fill="#ffffff">(0.00%)</text>
<text text-anchor="middle" x="186" y="-283" font-family="Arial" font-size="10.00" fill="#ffffff">1×</text>
</a>
</g>
</g>
<!-- 422&#45;&gt;290 -->
<g id="edge15" class="edge"><title>422&#45;&gt;290</title>
<path fill="none" stroke="#0d1174" stroke-width="0.5" d="M275.459,-367.93C259.336,-356.228 240.109,-342.273 223.619,-330.304"/>
<polygon fill="#0d1174" stroke="#0d1174" stroke-width="0.5" points="224.338,-329.312 220.786,-328.248 222.899,-331.295 224.338,-329.312"/>
<text text-anchor="middle" x="277" y="-351" font-family="Arial" font-size="10.00" fill="#0d1174">1.11%</text>
<text text-anchor="middle" x="277" y="-340" font-family="Arial" font-size="10.00" fill="#0d1174">1×</text>
</g>
<!-- 426&#45;&gt;563 -->
<g id="edge19" class="edge"><title>426&#45;&gt;563</title>
<path fill="none" stroke="#0d2b7b" stroke-width="0.5" d="M598.323,-367.93C587.454,-356.421 574.526,-342.734 563.349,-330.899"/>
<polygon fill="#0d2b7b" stroke="#0d2b7b" stroke-width="0.5" points="564.139,-329.951 560.845,-328.248 562.358,-331.633 564.139,-329.951"/>
<text text-anchor="middle" x="604" y="-351" font-family="Arial" font-size="10.00" fill="#0d2b7b">6.77%</text>
<text text-anchor="middle" x="604" y="-340" font-family="Arial" font-size="10.00" fill="#0d2b7b">161×</text>
</g>
<!-- 425 -->
<g id="node15" class="node"><title>425</title>
<g id="a_node15"><a xlink:title="C:\Users\quentin\Documents\Programmation\Python\python_rl_re\engine.py">
<polygon fill="#0b9e71" stroke="#0b9e71" points="719,-328 595,-328 595,-276 719,-276 719,-328"/>
<text text-anchor="middle" x="657" y="-316" font-family="Arial" font-size="10.00" fill="#ffffff">engine:90:handling_keys</text>
<text text-anchor="middle" x="657" y="-305" font-family="Arial" font-size="10.00" fill="#ffffff">32.71%</text>
<text text-anchor="middle" x="657" y="-294" font-family="Arial" font-size="10.00" fill="#ffffff">(4.56%)</text>
<text text-anchor="middle" x="657" y="-283" font-family="Arial" font-size="10.00" fill="#ffffff">1878601×</text>
</a>
</g>
</g>
<!-- 426&#45;&gt;425 -->
<g id="edge18" class="edge"><title>426&#45;&gt;425</title>
<path fill="none" stroke="#0b9e71" stroke-width="1.31" d="M631.749,-367.93C635.887,-357.292 640.748,-344.792 645.094,-333.614"/>
<polygon fill="#0b9e71" stroke="#0b9e71" stroke-width="1.31" points="646.975,-334.283 647.181,-328.248 643.256,-332.837 646.975,-334.283"/>
<text text-anchor="middle" x="665.5" y="-351" font-family="Arial" font-size="10.00" fill="#0b9e71">32.71%</text>
<text text-anchor="middle" x="665.5" y="-340" font-family="Arial" font-size="10.00" fill="#0b9e71">1878601×</text>
</g>
<!-- 435 -->
<g id="node18" class="node"><title>435</title>
<g id="a_node18"><a xlink:title="C:\Users\quentin\Documents\Programmation\Python\python_rl_re\engine.py">
<polygon fill="#0d297b" stroke="#0d297b" points="928,-328 804,-328 804,-276 928,-276 928,-328"/>
<text text-anchor="middle" x="866" y="-316" font-family="Arial" font-size="10.00" fill="#ffffff">engine:202:clear_display</text>
<text text-anchor="middle" x="866" y="-305" font-family="Arial" font-size="10.00" fill="#ffffff">6.47%</text>
<text text-anchor="middle" x="866" y="-294" font-family="Arial" font-size="10.00" fill="#ffffff">(0.84%)</text>
<text text-anchor="middle" x="866" y="-283" font-family="Arial" font-size="10.00" fill="#ffffff">161×</text>
</a>
</g>
</g>
<!-- 436&#45;&gt;435 -->
<g id="edge21" class="edge"><title>436&#45;&gt;435</title>
<path fill="none" stroke="#0d297b" stroke-width="0.5" d="M810.449,-367.93C820.212,-356.518 831.809,-342.963 841.875,-331.198"/>
<polygon fill="#0d297b" stroke="#0d297b" stroke-width="0.5" points="843.055,-331.704 844.399,-328.248 841.193,-330.111 843.055,-331.704"/>
<text text-anchor="middle" x="851" y="-351" font-family="Arial" font-size="10.00" fill="#0d297b">6.47%</text>
<text text-anchor="middle" x="851" y="-340" font-family="Arial" font-size="10.00" fill="#0d297b">161×</text>
</g>
<!-- 547 -->
<g id="node19" class="node"><title>547</title>
<g id="a_node19"><a xlink:title="C:\Python\Python37&#45;32\lib\site&#45;packages\tdl\__init__.py">
<polygon fill="#0d317d" stroke="#0d317d" points="924,-236 808,-236 808,-184 924,-184 924,-236"/>
<text text-anchor="middle" x="866" y="-224" font-family="Arial" font-size="10.00" fill="#ffffff">__init__:369:draw_char</text>
<text text-anchor="middle" x="866" y="-213" font-family="Arial" font-size="10.00" fill="#ffffff">8.07%</text>
<text text-anchor="middle" x="866" y="-202" font-family="Arial" font-size="10.00" fill="#ffffff">(2.90%)</text>
<text text-anchor="middle" x="866" y="-191" font-family="Arial" font-size="10.00" fill="#ffffff">881206×</text>
</a>
</g>
</g>
<!-- 436&#45;&gt;547 -->
<g id="edge23" class="edge"><title>436&#45;&gt;547</title>
<path fill="none" stroke="#0d1375" stroke-width="0.5" d="M773.026,-367.832C759.554,-343.119 744.839,-305.011 761,-276 770.732,-258.529 787.313,-245.16 804.46,-235.223"/>
<polygon fill="#0d1375" stroke="#0d1375" stroke-width="0.5" points="805.451,-236.07 807.895,-233.281 804.245,-233.937 805.451,-236.07"/>
<text text-anchor="middle" x="780" y="-305" font-family="Arial" font-size="10.00" fill="#0d1375">1.50%</text>
<text text-anchor="middle" x="780" y="-294" font-family="Arial" font-size="10.00" fill="#0d1375">165830×</text>
</g>
<!-- 460 -->
<g id="node20" class="node"><title>460</title>
<g id="a_node20"><a xlink:title="C:\Users\quentin\Documents\Programmation\Python\python_rl_re\game_map.py">
<polygon fill="#0aae2d" stroke="#0aae2d" points="1068.5,-328 937.5,-328 937.5,-276 1068.5,-276 1068.5,-328"/>
<text text-anchor="middle" x="1003" y="-316" font-family="Arial" font-size="10.00" fill="#ffffff">game_map:157:draw_map</text>
<text text-anchor="middle" x="1003" y="-305" font-family="Arial" font-size="10.00" fill="#ffffff">44.72%</text>
<text text-anchor="middle" x="1003" y="-294" font-family="Arial" font-size="10.00" fill="#ffffff">(43.76%)</text>
<text text-anchor="middle" x="1003" y="-283" font-family="Arial" font-size="10.00" fill="#ffffff">161×</text>
</a>
</g>
</g>
<!-- 436&#45;&gt;460 -->
<g id="edge22" class="edge"><title>436&#45;&gt;460</title>
<path fill="none" stroke="#0aae2d" stroke-width="1.79" d="M842.725,-370.405C871.275,-358.398 906.62,-343.534 936.847,-330.821"/>
<polygon fill="#0aae2d" stroke="#0aae2d" stroke-width="1.79" points="937.948,-332.902 943.215,-328.143 936.13,-328.579 937.948,-332.902"/>
<text text-anchor="middle" x="939" y="-351" font-family="Arial" font-size="10.00" fill="#0aae2d">44.72%</text>
<text text-anchor="middle" x="939" y="-340" font-family="Arial" font-size="10.00" fill="#0aae2d">161×</text>
</g>
<!-- 1201 -->
<g id="node16" class="node"><title>1201</title>
<g id="a_node16"><a xlink:title="C:\Python\Python37&#45;32\lib\site&#45;packages\tdl\event.py">
<polygon fill="#0c9789" stroke="#0c9789" points="630,-236 556,-236 556,-184 630,-184 630,-236"/>
<text text-anchor="middle" x="593" y="-224" font-family="Arial" font-size="10.00" fill="#ffffff">event:405:get</text>
<text text-anchor="middle" x="593" y="-213" font-family="Arial" font-size="10.00" fill="#ffffff">27.37%</text>
<text text-anchor="middle" x="593" y="-202" font-family="Arial" font-size="10.00" fill="#ffffff">(3.67%)</text>
<text text-anchor="middle" x="593" y="-191" font-family="Arial" font-size="10.00" fill="#ffffff">1878924×</text>
</a>
</g>
</g>
<!-- 563&#45;&gt;1201 -->
<g id="edge29" class="edge"><title>563&#45;&gt;1201</title>
<path fill="none" stroke="#0d0d73" stroke-width="0.5" d="M552.599,-275.93C559.64,-264.615 567.991,-251.193 575.268,-239.497"/>
<polygon fill="#0d0d73" stroke="#0d0d73" stroke-width="0.5" points="576.481,-239.867 577.29,-236.248 574.401,-238.572 576.481,-239.867"/>
<text text-anchor="middle" x="586" y="-259" font-family="Arial" font-size="10.00" fill="#0d0d73">0.17%</text>
<text text-anchor="middle" x="586" y="-248" font-family="Arial" font-size="10.00" fill="#0d0d73">323×</text>
</g>
<!-- 1172 -->
<g id="node24" class="node"><title>1172</title>
<g id="a_node24"><a xlink:title="~">
<polygon fill="#0d397f" stroke="#0d397f" points="547,-236 285,-236 285,-184 547,-184 547,-236"/>
<text text-anchor="middle" x="416" y="-224" font-family="Arial" font-size="10.00" fill="#ffffff">~:0:&lt;built&#45;in method tcod._libtcod.TCOD_console_flush&gt;</text>
<text text-anchor="middle" x="416" y="-213" font-family="Arial" font-size="10.00" fill="#ffffff">9.64%</text>
<text text-anchor="middle" x="416" y="-202" font-family="Arial" font-size="10.00" fill="#ffffff">(9.64%)</text>
<text text-anchor="middle" x="416" y="-191" font-family="Arial" font-size="10.00" fill="#ffffff">323×</text>
</a>
</g>
</g>
<!-- 563&#45;&gt;1172 -->
<g id="edge28" class="edge"><title>563&#45;&gt;1172</title>
<path fill="none" stroke="#0d397f" stroke-width="0.5" d="M503.295,-275.93C487.692,-264.325 469.11,-250.503 453.108,-238.601"/>
<polygon fill="#0d397f" stroke="#0d397f" stroke-width="0.5" points="453.484,-237.354 449.944,-236.248 452.021,-239.32 453.484,-237.354"/>
<text text-anchor="middle" x="505" y="-259" font-family="Arial" font-size="10.00" fill="#0d397f">9.64%</text>
<text text-anchor="middle" x="505" y="-248" font-family="Arial" font-size="10.00" fill="#0d397f">323×</text>
</g>
<!-- 136&#45;&gt;10 -->
<g id="edge11" class="edge"><title>136&#45;&gt;10</title>
<path fill="none" stroke="#0d0f73" stroke-width="0.5" d="M743.18,-512.244C760.949,-528.46 779,-551.267 779,-577 779,-947 779,-947 779,-947 779,-975.865 757.007,-996.237 731.183,-1010.21"/>
<polygon fill="#0d0f73" stroke="#0d0f73" stroke-width="0.5" points="730.539,-1009.16 728.016,-1011.88 731.683,-1011.33 730.539,-1009.16"/>
<text text-anchor="middle" x="793" y="-765" font-family="Arial" font-size="10.00" fill="#0d0f73">0.56%</text>
<text text-anchor="middle" x="793" y="-754" font-family="Arial" font-size="10.00" fill="#0d0f73">5×</text>
</g>
<!-- 1173 -->
<g id="node14" class="node"><title>1173</title>
<g id="a_node14"><a xlink:title="~">
<polygon fill="#0d1174" stroke="#0d1174" points="276,-236 0,-236 0,-184 276,-184 276,-236"/>
<text text-anchor="middle" x="138" y="-224" font-family="Arial" font-size="10.00" fill="#ffffff">~:0:&lt;built&#45;in method tcod._libtcod.TCOD_console_init_root&gt;</text>
<text text-anchor="middle" x="138" y="-213" font-family="Arial" font-size="10.00" fill="#ffffff">1.11%</text>
<text text-anchor="middle" x="138" y="-202" font-family="Arial" font-size="10.00" fill="#ffffff">(1.11%)</text>
<text text-anchor="middle" x="138" y="-191" font-family="Arial" font-size="10.00" fill="#ffffff">1×</text>
</a>
</g>
</g>
<!-- 290&#45;&gt;1173 -->
<g id="edge12" class="edge"><title>290&#45;&gt;1173</title>
<path fill="none" stroke="#0d1174" stroke-width="0.5" d="M172.629,-275.93C166.595,-264.615 159.436,-251.193 153.199,-239.497"/>
<polygon fill="#0d1174" stroke="#0d1174" stroke-width="0.5" points="154.193,-238.759 151.465,-236.248 152.032,-239.912 154.193,-238.759"/>
<text text-anchor="middle" x="182" y="-259" font-family="Arial" font-size="10.00" fill="#0d1174">1.11%</text>
<text text-anchor="middle" x="182" y="-248" font-family="Arial" font-size="10.00" fill="#0d1174">1×</text>
</g>
<!-- 425&#45;&gt;1201 -->
<g id="edge16" class="edge"><title>425&#45;&gt;1201</title>
<path fill="none" stroke="#0c968a" stroke-width="1.09" d="M639.172,-275.93C631.401,-265.002 622.233,-252.108 614.122,-240.703"/>
<polygon fill="#0c968a" stroke="#0c968a" stroke-width="1.09" points="615.451,-239.431 610.954,-236.248 612.484,-241.54 615.451,-239.431"/>
<text text-anchor="middle" x="654.5" y="-259" font-family="Arial" font-size="10.00" fill="#0c968a">27.20%</text>
<text text-anchor="middle" x="654.5" y="-248" font-family="Arial" font-size="10.00" fill="#0c968a">1878601×</text>
</g>
<!-- 1202 -->
<g id="node17" class="node"><title>1202</title>
<g id="a_node17"><a xlink:title="C:\Python\Python37&#45;32\lib\site&#45;packages\tdl\event.py">
<polygon fill="#0d1174" stroke="#0d1174" points="773,-236 639,-236 639,-184 773,-184 773,-236"/>
<text text-anchor="middle" x="706" y="-224" font-family="Arial" font-size="10.00" fill="#ffffff">event:420:_event_generator</text>
<text text-anchor="middle" x="706" y="-213" font-family="Arial" font-size="10.00" fill="#ffffff">0.95%</text>
<text text-anchor="middle" x="706" y="-202" font-family="Arial" font-size="10.00" fill="#ffffff">(0.95%)</text>
<text text-anchor="middle" x="706" y="-191" font-family="Arial" font-size="10.00" fill="#ffffff">1879345×</text>
</a>
</g>
</g>
<!-- 425&#45;&gt;1202 -->
<g id="edge17" class="edge"><title>425&#45;&gt;1202</title>
<path fill="none" stroke="#0d1174" stroke-width="0.5" d="M681.074,-275.834C683.238,-272.968 685.264,-269.997 687,-267 691.818,-258.683 695.653,-248.959 698.58,-239.97"/>
<polygon fill="#0d1174" stroke="#0d1174" stroke-width="0.5" points="699.894,-239.875 699.779,-236.168 697.558,-239.138 699.894,-239.875"/>
<text text-anchor="middle" x="718.5" y="-259" font-family="Arial" font-size="10.00" fill="#0d1174">0.95%</text>
<text text-anchor="middle" x="718.5" y="-248" font-family="Arial" font-size="10.00" fill="#0d1174">1879022×</text>
</g>
<!-- 1175 -->
<g id="node26" class="node"><title>1175</title>
<g id="a_node26"><a xlink:title="C:\Python\Python37&#45;32\lib\site&#45;packages\tdl\event.py">
<polygon fill="#0c8b92" stroke="#0c8b92" points="658,-144 528,-144 528,-92 658,-92 658,-144"/>
<text text-anchor="middle" x="593" y="-132" font-family="Arial" font-size="10.00" fill="#ffffff">event:331:_processEvents</text>
<text text-anchor="middle" x="593" y="-121" font-family="Arial" font-size="10.00" fill="#ffffff">23.70%</text>
<text text-anchor="middle" x="593" y="-110" font-family="Arial" font-size="10.00" fill="#ffffff">(8.97%)</text>
<text text-anchor="middle" x="593" y="-99" font-family="Arial" font-size="10.00" fill="#ffffff">1878924×</text>
</a>
</g>
</g>
<!-- 1201&#45;&gt;1175 -->
<g id="edge33" class="edge"><title>1201&#45;&gt;1175</title>
<path fill="none" stroke="#0c8b92" stroke-width="0.95" d="M593,-183.93C593,-173.195 593,-160.564 593,-149.31"/>
<polygon fill="#0c8b92" stroke="#0c8b92" stroke-width="0.95" points="594.715,-149.148 593,-144.248 591.285,-149.148 594.715,-149.148"/>
<text text-anchor="middle" x="614.5" y="-167" font-family="Arial" font-size="10.00" fill="#0c8b92">23.70%</text>
<text text-anchor="middle" x="614.5" y="-156" font-family="Arial" font-size="10.00" fill="#0c8b92">1878924×</text>
</g>
<!-- 435&#45;&gt;547 -->
<g id="edge20" class="edge"><title>435&#45;&gt;547</title>
<path fill="none" stroke="#0d257a" stroke-width="0.5" d="M866,-275.93C866,-264.712 866,-251.422 866,-239.798"/>
<polygon fill="#0d257a" stroke="#0d257a" stroke-width="0.5" points="867.225,-239.748 866,-236.248 864.775,-239.748 867.225,-239.748"/>
<text text-anchor="middle" x="885" y="-259" font-family="Arial" font-size="10.00" fill="#0d257a">5.64%</text>
<text text-anchor="middle" x="885" y="-248" font-family="Arial" font-size="10.00" fill="#0d257a">644000×</text>
</g>
<!-- 546 -->
<g id="node21" class="node"><title>546</title>
<g id="a_node21"><a xlink:title="C:\Python\Python37&#45;32\lib\site&#45;packages\tdl\__init__.py">
<polygon fill="#0d1776" stroke="#0d1776" points="791.5,-144 668.5,-144 668.5,-92 791.5,-92 791.5,-144"/>
<text text-anchor="middle" x="730" y="-132" font-family="Arial" font-size="10.00" fill="#ffffff">__init__:92:_format_char</text>
<text text-anchor="middle" x="730" y="-121" font-family="Arial" font-size="10.00" fill="#ffffff">2.49%</text>
<text text-anchor="middle" x="730" y="-110" font-family="Arial" font-size="10.00" fill="#ffffff">(1.73%)</text>
<text text-anchor="middle" x="730" y="-99" font-family="Arial" font-size="10.00" fill="#ffffff">881206×</text>
</a>
</g>
</g>
<!-- 547&#45;&gt;546 -->
<g id="edge25" class="edge"><title>547&#45;&gt;546</title>
<path fill="none" stroke="#0d1776" stroke-width="0.5" d="M828.116,-183.93C810.433,-172.228 789.346,-158.273 771.26,-146.304"/>
<polygon fill="#0d1776" stroke="#0d1776" stroke-width="0.5" points="771.747,-145.158 768.152,-144.248 770.395,-147.201 771.747,-145.158"/>
<text text-anchor="middle" x="834" y="-167" font-family="Arial" font-size="10.00" fill="#0d1776">2.49%</text>
<text text-anchor="middle" x="834" y="-156" font-family="Arial" font-size="10.00" fill="#0d1776">881206×</text>
</g>
<!-- 548 -->
<g id="node22" class="node"><title>548</title>
<g id="a_node22"><a xlink:title="C:\Python\Python37&#45;32\lib\site&#45;packages\tdl\__init__.py">
<polygon fill="#0d1174" stroke="#0d1174" points="931.5,-144 800.5,-144 800.5,-92 931.5,-92 931.5,-144"/>
<text text-anchor="middle" x="866" y="-132" font-family="Arial" font-size="10.00" fill="#ffffff">__init__:139:_format_color</text>
<text text-anchor="middle" x="866" y="-121" font-family="Arial" font-size="10.00" fill="#ffffff">0.97%</text>
<text text-anchor="middle" x="866" y="-110" font-family="Arial" font-size="10.00" fill="#ffffff">(0.91%)</text>
<text text-anchor="middle" x="866" y="-99" font-family="Arial" font-size="10.00" fill="#ffffff">1762422×</text>
</a>
</g>
</g>
<!-- 547&#45;&gt;548 -->
<g id="edge26" class="edge"><title>547&#45;&gt;548</title>
<path fill="none" stroke="#0d1174" stroke-width="0.5" d="M866,-183.93C866,-172.712 866,-159.422 866,-147.798"/>
<polygon fill="#0d1174" stroke="#0d1174" stroke-width="0.5" points="867.225,-147.748 866,-144.248 864.775,-147.748 867.225,-147.748"/>
<text text-anchor="middle" x="887.5" y="-167" font-family="Arial" font-size="10.00" fill="#0d1174">0.97%</text>
<text text-anchor="middle" x="887.5" y="-156" font-family="Arial" font-size="10.00" fill="#0d1174">1762412×</text>
</g>
<!-- 1187 -->
<g id="node23" class="node"><title>1187</title>
<g id="a_node23"><a xlink:title="~">
<polygon fill="#0d1475" stroke="#0d1475" points="1227,-144 941,-144 941,-92 1227,-92 1227,-144"/>
<text text-anchor="middle" x="1084" y="-132" font-family="Arial" font-size="10.00" fill="#ffffff">~:0:&lt;built&#45;in method tcod._libtcod.TDL_console_put_char_ex&gt;</text>
<text text-anchor="middle" x="1084" y="-121" font-family="Arial" font-size="10.00" fill="#ffffff">1.72%</text>
<text text-anchor="middle" x="1084" y="-110" font-family="Arial" font-size="10.00" fill="#ffffff">(1.72%)</text>
<text text-anchor="middle" x="1084" y="-99" font-family="Arial" font-size="10.00" fill="#ffffff">881206×</text>
</a>
</g>
</g>
<!-- 547&#45;&gt;1187 -->
<g id="edge27" class="edge"><title>547&#45;&gt;1187</title>
<path fill="none" stroke="#0d1475" stroke-width="0.5" d="M924.134,-185C953.706,-172.791 989.718,-157.924 1020.07,-145.393"/>
<polygon fill="#0d1475" stroke="#0d1475" stroke-width="0.5" points="1020.6,-146.501 1023.36,-144.033 1019.66,-144.236 1020.6,-146.501"/>
<text text-anchor="middle" x="1020" y="-167" font-family="Arial" font-size="10.00" fill="#0d1475">1.72%</text>
<text text-anchor="middle" x="1020" y="-156" font-family="Arial" font-size="10.00" fill="#0d1475">881206×</text>
</g>
<!-- 460&#45;&gt;547 -->
<g id="edge24" class="edge"><title>460&#45;&gt;547</title>
<path fill="none" stroke="#0d1174" stroke-width="0.5" d="M964.838,-275.93C947.025,-264.228 925.782,-250.273 907.563,-238.304"/>
<polygon fill="#0d1174" stroke="#0d1174" stroke-width="0.5" points="908.031,-237.146 904.433,-236.248 906.685,-239.193 908.031,-237.146"/>
<text text-anchor="middle" x="967.5" y="-259" font-family="Arial" font-size="10.00" fill="#0d1174">0.93%</text>
<text text-anchor="middle" x="967.5" y="-248" font-family="Arial" font-size="10.00" fill="#0d1174">70991×</text>
</g>
<!-- 1174 -->
<g id="node25" class="node"><title>1174</title>
<g id="a_node25"><a xlink:title="~">
<polygon fill="#0d1676" stroke="#0d1676" points="437,-52 117,-52 117,-0 437,-0 437,-52"/>
<text text-anchor="middle" x="277" y="-40" font-family="Arial" font-size="10.00" fill="#ffffff">~:0:&lt;built&#45;in method tcod._libtcod.TCOD_console_is_window_closed&gt;</text>
<text text-anchor="middle" x="277" y="-29" font-family="Arial" font-size="10.00" fill="#ffffff">2.29%</text>
<text text-anchor="middle" x="277" y="-18" font-family="Arial" font-size="10.00" fill="#ffffff">(2.29%)</text>
<text text-anchor="middle" x="277" y="-7" font-family="Arial" font-size="10.00" fill="#ffffff">1879086×</text>
</a>
</g>
</g>
<!-- 1175&#45;&gt;1174 -->
<g id="edge30" class="edge"><title>1175&#45;&gt;1174</title>
<path fill="none" stroke="#0d1676" stroke-width="0.5" d="M527.908,-98.4611C481.857,-85.3454 419.476,-67.5785 368.435,-53.0416"/>
<polygon fill="#0d1676" stroke="#0d1676" stroke-width="0.5" points="368.482,-51.7813 364.78,-52.0007 367.811,-54.1376 368.482,-51.7813"/>
<text text-anchor="middle" x="494.5" y="-75" font-family="Arial" font-size="10.00" fill="#0d1676">2.29%</text>
<text text-anchor="middle" x="494.5" y="-64" font-family="Arial" font-size="10.00" fill="#0d1676">1878924×</text>
</g>
<!-- 1185 -->
<g id="node27" class="node"><title>1185</title>
<g id="a_node27"><a xlink:title="~">
<polygon fill="#0d327d" stroke="#0d327d" points="739.5,-52 446.5,-52 446.5,-0 739.5,-0 739.5,-52"/>
<text text-anchor="middle" x="593" y="-40" font-family="Arial" font-size="10.00" fill="#ffffff">~:0:&lt;built&#45;in method tcod._libtcod.TCOD_sys_check_for_event&gt;</text>
<text text-anchor="middle" x="593" y="-29" font-family="Arial" font-size="10.00" fill="#ffffff">8.23%</text>
<text text-anchor="middle" x="593" y="-18" font-family="Arial" font-size="10.00" fill="#ffffff">(8.23%)</text>
<text text-anchor="middle" x="593" y="-7" font-family="Arial" font-size="10.00" fill="#ffffff">1879345×</text>
</a>
</g>
</g>
<!-- 1175&#45;&gt;1185 -->
<g id="edge31" class="edge"><title>1175&#45;&gt;1185</title>
<path fill="none" stroke="#0d327d" stroke-width="0.5" d="M593,-91.93C593,-80.7116 593,-67.4223 593,-55.7978"/>
<polygon fill="#0d327d" stroke="#0d327d" stroke-width="0.5" points="594.225,-55.7477 593,-52.2477 591.775,-55.7478 594.225,-55.7477"/>
<text text-anchor="middle" x="614.5" y="-75" font-family="Arial" font-size="10.00" fill="#0d327d">8.23%</text>
<text text-anchor="middle" x="614.5" y="-64" font-family="Arial" font-size="10.00" fill="#0d327d">1879345×</text>
</g>
<!-- 1231 -->
<g id="node28" class="node"><title>1231</title>
<g id="a_node28"><a xlink:title="~">
<polygon fill="#0d1d77" stroke="#0d1d77" points="955.5,-52 748.5,-52 748.5,-0 955.5,-0 955.5,-52"/>
<text text-anchor="middle" x="852" y="-40" font-family="Arial" font-size="10.00" fill="#ffffff">~:0:&lt;method &#39;new&#39; of &#39;CompiledFFI&#39; objects&gt;</text>
<text text-anchor="middle" x="852" y="-29" font-family="Arial" font-size="10.00" fill="#ffffff">3.71%</text>
<text text-anchor="middle" x="852" y="-18" font-family="Arial" font-size="10.00" fill="#ffffff">(3.71%)</text>
<text text-anchor="middle" x="852" y="-7" font-family="Arial" font-size="10.00" fill="#ffffff">3757916×</text>
</a>
</g>
</g>
<!-- 1175&#45;&gt;1231 -->
<g id="edge32" class="edge"><title>1175&#45;&gt;1231</title>
<path fill="none" stroke="#0d1d77" stroke-width="0.5" d="M658.377,-93.9644C660.272,-93.3017 662.149,-92.6458 664,-92 700.651,-79.2114 741.362,-65.1218 775.5,-53.3393"/>
<polygon fill="#0d1d77" stroke="#0d1d77" stroke-width="0.5" points="776.297,-54.3605 779.206,-52.0607 775.497,-52.0445 776.297,-54.3605"/>
<text text-anchor="middle" x="773.5" y="-75" font-family="Arial" font-size="10.00" fill="#0d1d77">3.71%</text>
<text text-anchor="middle" x="773.5" y="-64" font-family="Arial" font-size="10.00" fill="#0d1d77">3757848×</text>
</g>
</g>
</svg>
